<?xml version="1.0" encoding="UTF-8" standalone="no"?>
<!DOCTYPE svg PUBLIC "-//W3C//DTD SVG 1.1//EN"
 "http://www.w3.org/Graphics/SVG/1.1/DTD/svg11.dtd">
<!-- Generated by graphviz version 2.40.1 (20161225.0304)
 -->
<!-- Title: %0 Pages: 1 -->
<svg width="354pt" height="361pt"
 viewBox="0.00 0.00 354.00 361.00" xmlns="http://www.w3.org/2000/svg" xmlns:xlink="http://www.w3.org/1999/xlink">
<g id="graph0" class="graph" transform="scale(1 1) rotate(0) translate(4 357)">
<title>%0</title>
<polygon fill="#ffffff" stroke="transparent" points="-4,4 -4,-357 350,-357 350,4 -4,4"/>
<!-- S -->
<g id="node1" class="node">
<title>S</title>
<ellipse fill="none" stroke="#000000" stroke-width="2" cx="86" cy="-335" rx="27" ry="18"/>
<text text-anchor="middle" x="86" y="-332" font-family="Times,serif" font-size="10.00" fill="#000000">Inflow</text>
</g>
<!-- Sd -->
<g id="node2" class="node">
<title>Sd</title>
<polygon fill="none" stroke="#000000" points="27,-280 0,-262 27,-244 54,-262 27,-280"/>
<text text-anchor="middle" x="27" y="-259.6" font-family="Times,serif" font-size="8.00" fill="#000000">∂</text>
</g>
<!-- S&#45;&gt;Sd -->
<g id="edge1" class="edge">
<title>S&#45;&gt;Sd</title>
<path fill="none" stroke="#000000" d="M72.906,-318.7989C61.9065,-305.1894 46.4451,-286.0592 36.5737,-273.8454"/>
</g>
<!-- Sm -->
<g id="node3" class="node">
<title>Sm</title>
<polygon fill="none" stroke="#000000" points="99,-280 72,-262 99,-244 126,-262 99,-280"/>
<text text-anchor="middle" x="99" y="-259.6" font-family="Times,serif" font-size="8.00" fill="#000000">Mag</text>
</g>
<!-- S&#45;&gt;Sm -->
<g id="edge2" class="edge">
<title>S&#45;&gt;Sm</title>
<path fill="none" stroke="#000000" d="M89.2135,-316.9551C91.3188,-305.133 94.0483,-289.8058 96.0896,-278.3429"/>
</g>
<!-- Sms -->
<g id="node4" class="node">
<title>Sms</title>
<polygon fill="none" stroke="#000000" points="72,-159.5 72,-195.5 126,-195.5 126,-159.5 72,-159.5"/>
<text text-anchor="middle" x="85.2556" y="-175.1" font-family="Times,serif" font-size="8.00" fill="#000000">+</text>
<polyline fill="none" stroke="#000000" points="98.5112,-159.5 98.5112,-195.5 "/>
<text text-anchor="middle" x="112.0112" y="-175.1" font-family="Times,serif" font-size="8.00" fill="#000000">0</text>
</g>
<!-- Sm&#45;&gt;Sms -->
<g id="edge3" class="edge">
<title>Sm&#45;&gt;Sms</title>
<path fill="none" stroke="#000000" d="M99,-243.6648C99,-229.3942 99,-209.6962 99,-195.5092"/>
</g>
<!-- Vm -->
<g id="node11" class="node">
<title>Vm</title>
<polygon fill="none" stroke="#000000" points="218,-195.5 191,-177.5 218,-159.5 245,-177.5 218,-195.5"/>
<text text-anchor="middle" x="218" y="-175.1" font-family="Times,serif" font-size="8.00" fill="#000000">Mag</text>
</g>
<!-- Sm&#45;&gt;Vm -->
<g id="edge10" class="edge">
<title>Sm&#45;&gt;Vm</title>
<path fill="none" stroke="#000000" d="M112.1898,-252.6342C132.5621,-238.1681 171.8904,-210.2417 196.4384,-192.8106"/>
<polygon fill="#000000" stroke="#000000" points="198.624,-195.5512 204.7512,-186.9078 194.5712,-189.8438 198.624,-195.5512"/>
<text text-anchor="middle" x="170.484" y="-217" font-family="Times,serif" font-size="10.00" fill="#000000">I+</text>
</g>
<!-- D -->
<g id="node5" class="node">
<title>D</title>
<ellipse fill="none" stroke="#000000" stroke-width="2" cx="195" cy="-335" rx="29.8229" ry="18"/>
<text text-anchor="middle" x="195" y="-332" font-family="Times,serif" font-size="10.00" fill="#000000">Outflow</text>
</g>
<!-- Dd -->
<g id="node6" class="node">
<title>Dd</title>
<polygon fill="none" stroke="#000000" points="319,-280 292,-262 319,-244 346,-262 319,-280"/>
<text text-anchor="middle" x="319" y="-259.6" font-family="Times,serif" font-size="8.00" fill="#000000">∂</text>
</g>
<!-- D&#45;&gt;Dd -->
<g id="edge4" class="edge">
<title>D&#45;&gt;Dd</title>
<path fill="none" stroke="#000000" d="M216.3164,-322.4509C241.5215,-307.6123 282.7877,-283.3185 304.5386,-270.5135"/>
</g>
<!-- Dm -->
<g id="node7" class="node">
<title>Dm</title>
<polygon fill="none" stroke="#000000" points="171,-280 144,-262 171,-244 198,-262 171,-280"/>
<text text-anchor="middle" x="171" y="-259.6" font-family="Times,serif" font-size="8.00" fill="#000000">Mag</text>
</g>
<!-- D&#45;&gt;Dm -->
<g id="edge5" class="edge">
<title>D&#45;&gt;Dm</title>
<path fill="none" stroke="#000000" d="M189.1903,-317.3287C185.1394,-305.0074 179.7926,-288.7441 175.9455,-277.0427"/>
</g>
<!-- Vd -->
<g id="node10" class="node">
<title>Vd</title>
<polygon fill="none" stroke="#000000" points="304,-195.5 277,-177.5 304,-159.5 331,-177.5 304,-195.5"/>
<text text-anchor="middle" x="304" y="-175.1" font-family="Times,serif" font-size="8.00" fill="#000000">∂</text>
</g>
<!-- Dd&#45;&gt;Vd -->
<g id="edge12" class="edge">
<title>Dd&#45;&gt;Vd</title>
<path fill="none" stroke="#000000" d="M314.3546,-235.8306C312.5426,-225.6236 310.4695,-213.9448 308.6565,-203.7317"/>
<polygon fill="#000000" stroke="#000000" points="310.9138,-236.4732 316.1078,-245.7076 317.8061,-235.2497 310.9138,-236.4732"/>
<polygon fill="#000000" stroke="#000000" points="312.0773,-202.9767 306.8833,-193.7424 305.1851,-204.2003 312.0773,-202.9767"/>
<text text-anchor="middle" x="317.599" y="-217" font-family="Times,serif" font-size="10.00" fill="#000000">P+</text>
</g>
<!-- Dms -->
<g id="node8" class="node">
<title>Dms</title>
<polygon fill="none" stroke="#000000" points="126.8572,-.5 126.8572,-36.5 197.1428,-36.5 197.1428,-.5 126.8572,-.5"/>
<text text-anchor="middle" x="141.7444" y="-16.1" font-family="Times,serif" font-size="8.00" fill="#000000">max</text>
<polyline fill="none" stroke="#000000" points="156.6316,-.5 156.6316,-36.5 "/>
<text text-anchor="middle" x="166.8872" y="-16.1" font-family="Times,serif" font-size="8.00" fill="#000000">+</text>
<polyline fill="none" stroke="#000000" points="177.1428,-.5 177.1428,-36.5 "/>
<text text-anchor="middle" x="187.1428" y="-16.1" font-family="Times,serif" font-size="8.00" fill="#000000">0</text>
</g>
<!-- Dm&#45;&gt;Dms -->
<g id="edge6" class="edge">
<title>Dm&#45;&gt;Dms</title>
<path fill="none" stroke="#000000" d="M170.3382,-244.0949C168.6779,-199.1741 164.3494,-82.0632 162.675,-36.7624"/>
</g>
<!-- Dm&#45;&gt;Vm -->
<g id="edge11" class="edge">
<title>Dm&#45;&gt;Vm</title>
<path fill="none" stroke="#000000" d="M178.3438,-248.7969C185.6131,-235.7275 196.88,-215.471 205.5494,-199.8845"/>
<polygon fill="#000000" stroke="#000000" points="208.7505,-201.3297 210.5527,-190.8893 202.6331,-197.9271 208.7505,-201.3297"/>
<text text-anchor="middle" x="201.329" y="-217" font-family="Times,serif" font-size="10.00" fill="#000000">I&#45;</text>
</g>
<!-- V -->
<g id="node9" class="node">
<title>V</title>
<ellipse fill="none" stroke="#000000" stroke-width="2" cx="245" cy="-262" rx="28.9882" ry="18"/>
<text text-anchor="middle" x="245" y="-259" font-family="Times,serif" font-size="10.00" fill="#000000">Volume</text>
</g>
<!-- V&#45;&gt;Vd -->
<g id="edge7" class="edge">
<title>V&#45;&gt;Vd</title>
<path fill="none" stroke="#000000" d="M256.6565,-245.3055C268.0075,-229.0486 285.0042,-204.7058 295.2457,-190.0379"/>
</g>
<!-- V&#45;&gt;Vm -->
<g id="edge8" class="edge">
<title>V&#45;&gt;Vm</title>
<path fill="none" stroke="#000000" d="M239.274,-244.0797C234.3824,-228.7709 227.4252,-206.9973 222.8154,-192.5704"/>
</g>
<!-- Vms -->
<g id="node12" class="node">
<title>Vms</title>
<polygon fill="none" stroke="#000000" points="189.8572,-85.5 189.8572,-121.5 260.1428,-121.5 260.1428,-85.5 189.8572,-85.5"/>
<text text-anchor="middle" x="204.7444" y="-101.1" font-family="Times,serif" font-size="8.00" fill="#000000">max</text>
<polyline fill="none" stroke="#000000" points="219.6316,-85.5 219.6316,-121.5 "/>
<text text-anchor="middle" x="229.8872" y="-101.1" font-family="Times,serif" font-size="8.00" fill="#000000">+</text>
<polyline fill="none" stroke="#000000" points="240.1428,-85.5 240.1428,-121.5 "/>
<text text-anchor="middle" x="250.1428" y="-101.1" font-family="Times,serif" font-size="8.00" fill="#000000">0</text>
</g>
<!-- Vm&#45;&gt;Vms -->
<g id="edge9" class="edge">
<title>Vm&#45;&gt;Vms</title>
<path fill="none" stroke="#000000" d="M219.6235,-160.3369C220.7221,-148.7236 222.1708,-133.4085 223.2876,-121.6024"/>
</g>
<!-- Vms&#45;&gt;Dms -->
<g id="edge13" class="edge">
<title>Vms:Vmax&#45;&gt;Dms:Dmax</title>
<path fill="none" stroke="#000000" d="M179.9781,-102.6536C154.2861,-98.0514 144.1692,-75.1968 142.3209,-46.7675"/>
<polygon fill="#000000" stroke="#000000" points="179.7409,-106.1459 190,-103.5 180.3301,-99.1708 179.7409,-106.1459"/>
<polygon fill="#000000" stroke="#000000" points="145.8108,-46.3858 142,-36.5 138.8142,-46.6045 145.8108,-46.3858"/>
<text text-anchor="middle" x="151.944" y="-58" font-family="Times,serif" font-size="10.00" fill="#000000">VC</text>
</g>
<!-- Vms&#45;&gt;Dms -->
<g id="edge14" class="edge">
<title>Vms:Vnull&#45;&gt;Dms:Dnull</title>
<path fill="none" stroke="#000000" d="M247.7578,-75.4885C237.9379,-56.916 198.7851,-65.0766 189.1504,-46.3354"/>
<polygon fill="#000000" stroke="#000000" points="244.399,-76.5067 250,-85.5 251.2298,-74.9768 244.399,-76.5067"/>
<polygon fill="#000000" stroke="#000000" points="192.5552,-45.5216 187,-36.5 185.7168,-47.0168 192.5552,-45.5216"/>
<text text-anchor="middle" x="243.944" y="-58" font-family="Times,serif" font-size="10.00" fill="#000000">VC</text>
</g>
</g>
</svg>
